<svg width="24" height="24" viewBox="0 0 24 24" fill="none" xmlns="http://www.w3.org/2000/svg">
<path d="M19.9514 5.65327C18.0469 4.1227 15.0352 3.86342 14.9079 3.85242C14.7068 3.83513 14.5159 3.94906 14.4334 4.13292C14.4302 4.1392 14.2621 4.62713 14.0994 5.09777C16.3128 5.48513 17.8166 6.3447 17.8968 6.39185C18.2724 6.61027 18.3981 7.09192 18.1789 7.4667C18.0335 7.71656 17.7703 7.85642 17.5 7.85642C17.3656 7.85642 17.2305 7.82263 17.1064 7.75035C17.0844 7.73699 14.8781 6.48142 12.0016 6.48142C9.12429 6.48142 6.91721 7.73777 6.89521 7.75035C6.52043 7.96799 6.03957 7.83992 5.82193 7.46435C5.60429 7.09035 5.73079 6.61027 6.10479 6.39185C6.18493 6.3447 7.69429 5.48199 9.91393 5.09542C9.74264 4.61927 9.56979 4.1392 9.56664 4.13292C9.48414 3.94827 9.29321 3.83199 9.09207 3.85242C8.96479 3.86263 5.95314 4.12192 4.02343 5.6737C3.01457 6.60556 1 12.0537 1 16.7641C1 16.8473 1.02121 16.9283 1.06286 17.0006C2.45436 19.4441 6.24779 20.0837 7.11207 20.1112C7.11757 20.112 7.12229 20.112 7.127 20.112C7.27943 20.112 7.42321 20.0389 7.51357 19.9156L8.44857 18.649C6.39786 18.1548 5.31357 17.3777 5.24836 17.3298C4.8995 17.0728 4.82407 16.581 5.081 16.2313C5.33714 15.8833 5.82743 15.8063 6.17629 16.0616C6.20536 16.0805 8.20657 17.4814 12 17.4814C15.8084 17.4814 17.8041 16.075 17.8237 16.0608C18.1726 15.8078 18.6644 15.8841 18.9198 16.2345C19.1744 16.5833 19.1005 17.0721 18.7532 17.3282C18.688 17.3761 17.6092 18.1516 15.5632 18.6458L16.4864 19.9148C16.5768 20.0389 16.7206 20.1112 16.873 20.1112C16.8785 20.1112 16.8832 20.1112 16.8879 20.1104C17.753 20.0829 21.5464 19.4433 22.9371 16.9998C22.9788 16.9275 23 16.8466 23 16.7633C23 12.0537 20.9854 6.60556 19.9514 5.65327ZM8.85714 15.1243C7.98893 15.1243 7.28571 14.2451 7.28571 13.16C7.28571 12.0749 7.98893 11.1957 8.85714 11.1957C9.72536 11.1957 10.4286 12.0749 10.4286 13.16C10.4286 14.2451 9.72536 15.1243 8.85714 15.1243ZM15.1429 15.1243C14.2746 15.1243 13.5714 14.2451 13.5714 13.16C13.5714 12.0749 14.2746 11.1957 15.1429 11.1957C16.0111 11.1957 16.7143 12.0749 16.7143 13.16C16.7143 14.2451 16.0111 15.1243 15.1429 15.1243Z" fill="#5E6773"/>
</svg>
