<svg width="32" height="33" viewBox="0 0 32 33" fill="none" xmlns="http://www.w3.org/2000/svg">
<path d="M22.3604 11.4225C20.8367 10.1981 18.4274 9.99064 18.3256 9.98184C18.1646 9.96801 18.0119 10.0591 17.9459 10.2062C17.9434 10.2113 17.8089 10.6016 17.6788 10.9781C19.4494 11.288 20.6525 11.9757 20.7166 12.0134C21.0171 12.1881 21.1177 12.5734 20.9423 12.8733C20.826 13.0731 20.6154 13.185 20.3992 13.185C20.2917 13.185 20.1836 13.158 20.0843 13.1002C20.0667 13.0895 18.3017 12.085 16.0005 12.085C13.6986 12.085 11.933 13.0901 11.9154 13.1002C11.6156 13.2743 11.2309 13.1718 11.0568 12.8714C10.8826 12.5722 10.9838 12.1881 11.283 12.0134C11.3472 11.9757 12.5546 11.2855 14.3304 10.9762C14.1933 10.5953 14.055 10.2113 14.0525 10.2062C13.9865 10.0585 13.8338 9.96549 13.6729 9.98184C13.571 9.99001 11.1617 10.1974 9.61796 11.4389C8.81088 12.1844 7.19922 16.5429 7.19922 20.3112C7.19922 20.3778 7.21619 20.4425 7.2495 20.5004C8.3627 22.4552 11.3974 22.9669 12.0889 22.9889C12.0933 22.9895 12.097 22.9895 12.1008 22.9895C12.2228 22.9895 12.3378 22.931 12.4101 22.8323L13.1581 21.8191C11.5175 21.4237 10.6501 20.8021 10.5979 20.7637C10.3188 20.5582 10.2585 20.1647 10.464 19.885C10.6689 19.6065 11.0612 19.5449 11.3402 19.7492C11.3635 19.7643 12.9645 20.885 15.9992 20.885C19.0459 20.885 20.6425 19.7599 20.6582 19.7486C20.9373 19.5462 21.3308 19.6072 21.535 19.8875C21.7387 20.1666 21.6796 20.5576 21.4018 20.7625C21.3496 20.8008 20.4866 21.4212 18.8498 21.8166L19.5884 22.8317C19.6606 22.931 19.7757 22.9889 19.8976 22.9889C19.902 22.9889 19.9058 22.9889 19.9096 22.9882C20.6016 22.9662 23.6364 22.4546 24.7489 20.4997C24.7822 20.4419 24.7992 20.3772 24.7992 20.3105C24.7992 16.5429 23.1876 12.1844 22.3604 11.4225ZM13.4849 18.9993C12.7904 18.9993 12.2278 18.2959 12.2278 17.4279C12.2278 16.5598 12.7904 15.8565 13.4849 15.8565C14.1795 15.8565 14.7421 16.5598 14.7421 17.4279C14.7421 18.2959 14.1795 18.9993 13.4849 18.9993ZM18.5135 18.9993C17.8189 18.9993 17.2564 18.2959 17.2564 17.4279C17.2564 16.5598 17.8189 15.8565 18.5135 15.8565C19.2081 15.8565 19.7706 16.5598 19.7706 17.4279C19.7706 18.2959 19.2081 18.9993 18.5135 18.9993Z" fill="#5E6773"/>
</svg>
