<svg width="32" height="33" viewBox="0 0 32 33" fill="none" xmlns="http://www.w3.org/2000/svg">
<path fill-rule="evenodd" clip-rule="evenodd" d="M16.0076 7.61108C11.0882 7.61108 7.11133 11.6173 7.11133 16.5734C7.11133 20.5352 9.65943 23.8887 13.1943 25.0756C13.6363 25.1648 13.7982 24.8828 13.7982 24.6455C13.7982 24.4377 13.7836 23.7255 13.7836 22.9835C11.3089 23.5178 10.7935 21.9151 10.7935 21.9151C10.3958 20.8764 9.80657 20.6095 9.80657 20.6095C8.99659 20.0604 9.86557 20.0604 9.86557 20.0604C10.764 20.1198 11.2355 20.9804 11.2355 20.9804C12.0307 22.3454 13.3121 21.9597 13.8277 21.7223C13.9012 21.1436 14.1371 20.7429 14.3874 20.5204C12.4137 20.3126 10.337 19.5411 10.337 16.0985C10.337 15.1192 10.6903 14.318 11.2501 13.6948C11.1617 13.4723 10.8524 12.5521 11.3386 11.3206C11.3386 11.3206 12.0897 11.0832 13.7834 12.2406C14.5086 12.0444 15.2564 11.9446 16.0076 11.9438C16.7587 11.9438 17.5245 12.0477 18.2315 12.2406C19.9254 11.0832 20.6766 11.3206 20.6766 11.3206C21.1628 12.5521 20.8532 13.4723 20.7649 13.6948C21.3394 14.318 21.6781 15.1192 21.6781 16.0985C21.6781 19.5411 19.6015 20.2977 17.613 20.5204C17.9371 20.8023 18.2168 21.3364 18.2168 22.1822C18.2168 23.3841 18.2022 24.3487 18.2022 24.6453C18.2022 24.8828 18.3643 25.1648 18.8061 25.0758C22.341 23.8885 24.8891 20.5352 24.8891 16.5734C24.9036 11.6173 20.9122 7.61108 16.0076 7.61108Z" fill="#5E6773"/>
</svg>
