<svg width="32" height="33" viewBox="0 0 32 33" fill="none" xmlns="http://www.w3.org/2000/svg">
<path d="M16 8.5C18.1736 8.5 18.4448 8.508 19.2976 8.548C20.1496 8.588 20.7296 8.7216 21.24 8.92C21.768 9.1232 22.2128 9.3984 22.6576 9.8424C23.0644 10.2423 23.3792 10.7261 23.58 11.26C23.7776 11.7696 23.912 12.3504 23.952 13.2024C23.9896 14.0552 24 14.3264 24 16.5C24 18.6736 23.992 18.9448 23.952 19.7976C23.912 20.6496 23.7776 21.2296 23.58 21.74C23.3797 22.2742 23.0649 22.7581 22.6576 23.1576C22.2576 23.5643 21.7738 23.879 21.24 24.08C20.7304 24.2776 20.1496 24.412 19.2976 24.452C18.4448 24.4896 18.1736 24.5 16 24.5C13.8264 24.5 13.5552 24.492 12.7024 24.452C11.8504 24.412 11.2704 24.2776 10.76 24.08C10.2259 23.8796 9.74202 23.5648 9.3424 23.1576C8.93553 22.7577 8.62075 22.274 8.42 21.74C8.2216 21.2304 8.088 20.6496 8.048 19.7976C8.0104 18.9448 8 18.6736 8 16.5C8 14.3264 8.008 14.0552 8.048 13.2024C8.088 12.3496 8.2216 11.7704 8.42 11.26C8.62019 10.7257 8.93504 10.2419 9.3424 9.8424C9.74214 9.43538 10.2259 9.12058 10.76 8.92C11.2704 8.7216 11.8496 8.588 12.7024 8.548C13.5552 8.5104 13.8264 8.5 16 8.5ZM16 12.5C14.9391 12.5 13.9217 12.9214 13.1716 13.6716C12.4214 14.4217 12 15.4391 12 16.5C12 17.5609 12.4214 18.5783 13.1716 19.3284C13.9217 20.0786 14.9391 20.5 16 20.5C17.0609 20.5 18.0783 20.0786 18.8284 19.3284C19.5786 18.5783 20 17.5609 20 16.5C20 15.4391 19.5786 14.4217 18.8284 13.6716C18.0783 12.9214 17.0609 12.5 16 12.5ZM21.2 12.3C21.2 12.0348 21.0946 11.7804 20.9071 11.5929C20.7196 11.4054 20.4652 11.3 20.2 11.3C19.9348 11.3 19.6804 11.4054 19.4929 11.5929C19.3054 11.7804 19.2 12.0348 19.2 12.3C19.2 12.5652 19.3054 12.8196 19.4929 13.0071C19.6804 13.1946 19.9348 13.3 20.2 13.3C20.4652 13.3 20.7196 13.1946 20.9071 13.0071C21.0946 12.8196 21.2 12.5652 21.2 12.3ZM16 14.1C16.6365 14.1 17.247 14.3529 17.6971 14.8029C18.1471 15.253 18.4 15.8635 18.4 16.5C18.4 17.1365 18.1471 17.747 17.6971 18.1971C17.247 18.6471 16.6365 18.9 16 18.9C15.3635 18.9 14.753 18.6471 14.3029 18.1971C13.8529 17.747 13.6 17.1365 13.6 16.5C13.6 15.8635 13.8529 15.253 14.3029 14.8029C14.753 14.3529 15.3635 14.1 16 14.1Z" fill="#5E6773"/>
</svg>
