<svg width="134" height="21" viewBox="0 0 134 21" fill="none" xmlns="http://www.w3.org/2000/svg">
<path d="M106.728 11.2577C106.728 13.2855 106.173 14.8149 105.064 15.8456C103.966 16.8651 102.431 17.3749 100.46 17.3749H97.1152V5.37573H100.812C102.011 5.37573 103.053 5.59981 103.938 6.04796C104.835 6.4961 105.524 7.15712 106.005 8.03101C106.487 8.9049 106.728 9.98046 106.728 11.2577ZM105.131 11.3081C105.131 9.70596 104.734 8.53518 103.938 7.79573C103.154 7.04508 102.039 6.66976 100.594 6.66976H98.6277V16.0809H100.258C103.507 16.0809 105.131 14.4899 105.131 11.3081Z" fill="#868991"/>
<path d="M117.021 12.8542C117.021 14.3443 116.64 15.4983 115.878 16.3162C115.127 17.134 114.108 17.543 112.819 17.543C112.024 17.543 111.313 17.3637 110.685 17.0052C110.069 16.6355 109.582 16.1033 109.223 15.4087C108.865 14.7028 108.685 13.8513 108.685 12.8542C108.685 11.3641 109.055 10.2157 109.795 9.40907C110.545 8.6024 111.57 8.19907 112.87 8.19907C113.677 8.19907 114.394 8.38393 115.021 8.75365C115.648 9.11217 116.136 9.63874 116.483 10.3334C116.842 11.0168 117.021 11.8571 117.021 12.8542ZM110.215 12.8542C110.215 13.9186 110.422 14.7644 110.836 15.3918C111.262 16.008 111.934 16.3162 112.853 16.3162C113.761 16.3162 114.427 16.008 114.853 15.3918C115.279 14.7644 115.492 13.9186 115.492 12.8542C115.492 11.7899 115.279 10.9552 114.853 10.3502C114.427 9.74518 113.755 9.44268 112.836 9.44268C111.918 9.44268 111.251 9.74518 110.836 10.3502C110.422 10.9552 110.215 11.7899 110.215 12.8542Z" fill="#868991"/>
<path d="M122.978 17.543C122.171 17.543 121.46 17.3805 120.844 17.0556C120.227 16.7307 119.74 16.2265 119.382 15.5431C119.034 14.8597 118.861 13.9858 118.861 12.9214C118.861 11.8123 119.04 10.9104 119.398 10.2157C119.768 9.5211 120.272 9.01133 120.911 8.68643C121.549 8.36152 122.272 8.19907 123.079 8.19907C123.527 8.19907 123.964 8.24948 124.39 8.35032C124.827 8.43995 125.179 8.55198 125.448 8.68643L124.995 9.91323C124.726 9.8124 124.412 9.71717 124.053 9.62754C123.695 9.53791 123.359 9.49309 123.045 9.49309C121.275 9.49309 120.39 10.6303 120.39 12.9046C120.39 13.9914 120.603 14.8261 121.028 15.4087C121.465 15.98 122.11 16.2657 122.961 16.2657C123.443 16.2657 123.874 16.2153 124.255 16.1145C124.636 16.0136 124.983 15.8904 125.297 15.7448V17.0556C124.995 17.2124 124.658 17.3301 124.289 17.4085C123.93 17.4981 123.493 17.543 122.978 17.543Z" fill="#868991"/>
<path d="M133.304 14.8877C133.304 15.7616 132.98 16.4226 132.33 16.8707C131.68 17.3189 130.806 17.543 129.708 17.543C129.081 17.543 128.537 17.4925 128.078 17.3917C127.63 17.2909 127.232 17.1508 126.885 16.9716V15.6271C127.243 15.8064 127.675 15.9744 128.179 16.1313C128.694 16.2769 129.215 16.3498 129.742 16.3498C130.492 16.3498 131.036 16.2321 131.372 15.9968C131.708 15.7504 131.876 15.4255 131.876 15.0221C131.876 14.798 131.814 14.5964 131.691 14.4171C131.568 14.2379 131.344 14.0586 131.019 13.8793C130.705 13.7001 130.251 13.4984 129.658 13.2743C129.075 13.0503 128.576 12.8262 128.162 12.6021C127.747 12.378 127.428 12.1092 127.204 11.7955C126.98 11.4818 126.868 11.0784 126.868 10.5855C126.868 9.8236 127.176 9.23541 127.792 8.82087C128.42 8.40634 129.237 8.19907 130.246 8.19907C130.795 8.19907 131.305 8.25509 131.775 8.36712C132.257 8.47916 132.705 8.62481 133.12 8.80407L132.615 9.98046C132.234 9.8236 131.837 9.68916 131.422 9.57712C131.008 9.46509 130.582 9.40907 130.145 9.40907C129.54 9.40907 129.075 9.5099 128.75 9.71157C128.436 9.90203 128.28 10.1653 128.28 10.5014C128.28 10.7591 128.352 10.972 128.498 11.14C128.644 11.3081 128.885 11.4761 129.221 11.6442C129.568 11.8123 130.027 12.0027 130.599 12.2156C131.17 12.4285 131.657 12.6469 132.061 12.871C132.464 13.0951 132.772 13.3696 132.985 13.6945C133.198 14.0082 133.304 14.4059 133.304 14.8877Z" fill="#868991"/>
<path d="M26.2973 6.14103C25.2117 6.14103 24.382 6.54626 23.808 7.35674C23.2341 8.16721 22.9471 9.27693 22.9471 10.6859C22.9471 12.1074 23.2091 13.2108 23.7332 13.9964C24.2697 14.7694 25.1244 15.156 26.2973 15.156C26.8338 15.156 27.3766 15.0936 27.9256 14.9689C28.4746 14.8443 29.0673 14.6697 29.7036 14.4453V16.8206C29.1172 17.0575 28.537 17.232 27.963 17.3443C27.3891 17.4565 26.7465 17.5126 26.0352 17.5126C24.6502 17.5126 23.5148 17.232 22.6289 16.6709C21.743 16.0974 21.0879 15.2994 20.6637 14.2769C20.2395 13.242 20.0273 12.0388 20.0273 10.6672C20.0273 9.32058 20.2707 8.1298 20.7573 7.09489C21.2439 6.05998 21.9489 5.24951 22.8722 4.66347C23.808 4.07744 24.9497 3.78442 26.2973 3.78442C26.9586 3.78442 27.6199 3.87171 28.2812 4.04627C28.955 4.20836 29.5976 4.4328 30.209 4.71958L29.2919 7.02008C28.7928 6.78317 28.2874 6.57744 27.7759 6.40287C27.2768 6.22831 26.7839 6.14103 26.2973 6.14103Z" fill="white"/>
<path d="M41.6019 12.2009C41.6019 13.8966 41.1527 15.2059 40.2543 16.1285C39.3684 17.0512 38.1581 17.5126 36.6234 17.5126C35.6751 17.5126 34.8266 17.3068 34.078 16.8954C33.3418 16.4839 32.7616 15.8854 32.3373 15.0999C31.9131 14.3019 31.701 13.3355 31.701 12.2009C31.701 10.5051 32.1439 9.20212 33.0298 8.2919C33.9157 7.38167 35.1323 6.92656 36.6795 6.92656C37.6403 6.92656 38.4887 7.1323 39.2249 7.54377C39.9611 7.95524 40.5413 8.55374 40.9655 9.33928C41.3898 10.1248 41.6019 11.0787 41.6019 12.2009ZM34.5459 12.2009C34.5459 13.2108 34.7081 13.9777 35.0325 14.5014C35.3694 15.0126 35.9121 15.2682 36.6608 15.2682C37.397 15.2682 37.9273 15.0126 38.2517 14.5014C38.5886 13.9777 38.757 13.2108 38.757 12.2009C38.757 11.1909 38.5886 10.4365 38.2517 9.93778C37.9273 9.42656 37.3907 9.17095 36.6421 9.17095C35.9059 9.17095 35.3694 9.42656 35.0325 9.93778C34.7081 10.4365 34.5459 11.1909 34.5459 12.2009Z" fill="white"/>
<path d="M49.615 6.92656C49.7523 6.92656 49.9145 6.9328 50.1017 6.94527C50.2888 6.95774 50.4386 6.97644 50.5509 7.00138L50.345 9.61983C50.2452 9.59489 50.1141 9.57619 49.9519 9.56372C49.7897 9.53878 49.6462 9.52631 49.5215 9.52631C49.0473 9.52631 48.5919 9.61359 48.1552 9.78816C47.7185 9.95025 47.3629 10.2183 47.0884 10.5924C46.8263 10.9665 46.6953 11.4777 46.6953 12.1261V17.3256H43.9066V7.1136H46.0215L46.4333 8.83429H46.5643C46.8638 8.3106 47.2755 7.86172 47.7996 7.48766C48.3236 7.1136 48.9288 6.92656 49.615 6.92656Z" fill="white"/>
<path d="M56.2513 6.92656C57.6612 6.92656 58.778 7.3318 59.6015 8.14227C60.425 8.94028 60.8367 10.0812 60.8367 11.565V12.9116H54.2486C54.2736 13.6971 54.5044 14.3143 54.9411 14.7632C55.3903 15.2121 56.008 15.4365 56.794 15.4365C57.4429 15.4365 58.0355 15.3742 58.5721 15.2495C59.1211 15.1123 59.6826 14.9066 60.2565 14.6323V16.7832C59.745 17.0325 59.2147 17.2133 58.6656 17.3256C58.1166 17.4502 57.4491 17.5126 56.663 17.5126C55.6399 17.5126 54.7353 17.3256 53.9492 16.9515C53.1631 16.565 52.5455 15.9914 52.0963 15.2308C51.6471 14.4577 51.4225 13.4789 51.4225 12.2944C51.4225 11.1098 51.6221 10.1186 52.0214 9.32057C52.4332 8.52257 53.0009 7.92407 53.7246 7.52507C54.4483 7.12606 55.2905 6.92656 56.2513 6.92656ZM56.27 8.9091C55.721 8.9091 55.2718 9.08367 54.9224 9.43279C54.573 9.78192 54.3672 10.3243 54.3048 11.06H58.2165C58.204 10.449 58.0355 9.93778 57.7111 9.52631C57.3992 9.11484 56.9188 8.9091 56.27 8.9091Z" fill="white"/>
<path d="M72.4749 7.1136V17.3256H70.3412L69.9669 16.0163H69.8172C69.4927 16.54 69.0435 16.9203 68.4696 17.1572C67.9081 17.3941 67.3092 17.5126 66.6728 17.5126C65.5748 17.5126 64.6951 17.2196 64.0338 16.6335C63.3725 16.035 63.0419 15.0812 63.0419 13.7719V7.1136H65.8306V13.0799C65.8306 13.8156 65.9616 14.3704 66.2236 14.7445C66.4857 15.1061 66.9037 15.2869 67.4776 15.2869C68.3261 15.2869 68.9063 15.0001 69.2182 14.4266C69.5302 13.8405 69.6861 13.0051 69.6861 11.9203V7.1136H72.4749Z" fill="white"/>
<path d="M87.3959 6.92656C88.5563 6.92656 89.4297 7.22581 90.0162 7.82432C90.6151 8.41035 90.9146 9.35798 90.9146 10.6672V17.3256H88.1258V11.3592C88.1258 9.88791 87.6143 9.15225 86.5911 9.15225C85.8549 9.15225 85.3309 9.41409 85.019 9.93778C84.707 10.4615 84.5511 11.2158 84.5511 12.2009V17.3256H81.7623V11.3592C81.7623 9.88791 81.2508 9.15225 80.2276 9.15225C79.454 9.15225 78.9175 9.44526 78.618 10.0313C78.331 10.6049 78.1875 11.434 78.1875 12.5188V17.3256H75.3988V7.1136H77.5325L77.9068 8.42282H78.0565C78.3685 7.89913 78.7927 7.51883 79.3292 7.28193C79.8782 7.04502 80.446 6.92656 81.0324 6.92656C81.7811 6.92656 82.4112 7.05125 82.9227 7.30063C83.4468 7.53754 83.8523 7.9116 84.1393 8.42282H84.3826C84.6945 7.89913 85.125 7.51883 85.674 7.28193C86.2355 7.04502 86.8095 6.92656 87.3959 6.92656Z" fill="white"/>
<path d="M6.48112 8.20825C6.02787 8.20825 5.5848 8.34266 5.20794 8.59447C4.83108 8.84628 4.53735 9.20419 4.3639 9.62294C4.19045 10.0417 4.14506 10.5025 4.23349 10.947C4.32191 11.3915 4.54017 11.7999 4.86067 12.1204C5.18116 12.4409 5.5895 12.6591 6.03404 12.7476C6.47858 12.836 6.93936 12.7906 7.3581 12.6171C7.77685 12.4437 8.13476 12.15 8.38657 11.7731C8.63838 11.3962 8.77279 10.9532 8.77279 10.4999C8.77279 9.89213 8.53134 9.30924 8.10157 8.87947C7.6718 8.44969 7.08891 8.20825 6.48112 8.20825Z" fill="#25D695"/>
<path d="M6.48198 1.33326C5.27796 1.33178 4.08552 1.56819 2.97314 2.02891C1.86076 2.48963 0.850371 3.16558 0 4.01795L3.24271 7.26065C3.88351 6.6192 4.70018 6.18222 5.58938 6.005C6.47859 5.82777 7.40038 5.91827 8.23814 6.26503C9.07591 6.6118 9.792 7.19925 10.2958 7.95308C10.7997 8.7069 11.0686 9.59323 11.0686 10.4999C11.0686 11.4066 10.7997 12.2929 10.2958 13.0468C9.792 13.8006 9.07591 14.388 8.23814 14.7348C7.40038 15.0816 6.47859 15.1721 5.58938 14.9948C4.70018 14.8176 3.88351 14.3806 3.24271 13.7392L0 16.9819C1.06595 18.0478 2.37832 18.8344 3.82086 19.2719C5.2634 19.7095 6.79159 19.7845 8.27006 19.4904C9.74854 19.1963 11.1317 18.5421 12.2969 17.5858C13.4622 16.6295 14.3736 15.4006 14.9505 14.0079C15.5274 12.6152 15.7519 11.1017 15.6042 9.60155C15.4564 8.10137 14.941 6.66077 14.1036 5.40736C13.2661 4.15395 12.1324 3.12641 10.803 2.41577C9.47358 1.70513 7.98942 1.33331 6.48198 1.33326Z" fill="#25D695"/>
</svg>
