<svg width="24" height="24" viewBox="0 0 24 24" fill="none" xmlns="http://www.w3.org/2000/svg">
<path fill-rule="evenodd" clip-rule="evenodd" d="M4.37167 7.29923C4.39667 7.05339 4.3025 6.81089 4.11917 6.64589L2.2525 4.39589V4.06006H8.05083L12.5325 13.8892L16.4725 4.06006H22V4.39589L20.4033 5.92673C20.2658 6.03173 20.1975 6.20423 20.2258 6.37506V17.6234C20.1975 17.7934 20.2658 17.9659 20.4033 18.0709L21.9625 19.6017V19.9376H14.1192V19.6017L15.735 18.0334C15.8933 17.8751 15.8933 17.8284 15.8933 17.5859V8.49423L11.4025 19.9009H10.7958L5.56667 8.49423V16.1392C5.52333 16.4601 5.63 16.7842 5.85583 17.0159L7.95667 19.5642V19.9009H2V19.5642L4.10083 17.0159C4.32583 16.7834 4.42583 16.4576 4.37167 16.1392V7.29923Z" fill="#5E6773"/>
</svg>
