<svg width="32" height="33" viewBox="0 0 32 33" fill="none" xmlns="http://www.w3.org/2000/svg">
<path d="M24.3996 10.4165C24.2823 10.9774 24.1426 11.647 24.0001 12.323C23.271 15.7629 22.5413 19.2026 21.8113 22.6421C21.8026 22.6819 21.7982 22.7224 21.7888 22.7615C21.7805 22.925 21.7244 23.0825 21.6275 23.2144C21.5305 23.3464 21.397 23.447 21.2434 23.5038C21.0899 23.5606 20.923 23.571 20.7636 23.5339C20.6041 23.4968 20.459 23.4138 20.3463 23.295C19.5668 22.7326 18.7974 22.155 18.0244 21.5832C17.6169 21.2828 17.2029 20.9911 16.807 20.6763C16.5899 20.5062 16.4552 20.5366 16.2714 20.7248C15.7553 21.2539 15.2204 21.7649 14.6928 22.2817C14.5882 22.4127 14.4539 22.517 14.3012 22.5862C14.1485 22.6554 13.9816 22.6874 13.8141 22.6797C13.7228 22.6777 13.6346 22.6457 13.5632 22.5887C13.4918 22.5317 13.4411 22.4528 13.4189 22.3642C12.9586 20.9166 12.483 19.4777 12.0328 18.0294C12.0031 17.9046 11.9387 17.7907 11.847 17.7011C11.7553 17.6114 11.64 17.5496 11.5146 17.5227C10.3992 17.1934 9.29033 16.8424 8.18509 16.4877C7.92959 16.4059 7.62496 16.3285 7.60107 15.9934C7.57719 15.6582 7.85001 15.5214 8.0932 15.4034C8.79528 15.0632 9.54079 14.8194 10.2646 14.5385C14.5958 12.8651 18.9282 11.1941 23.2618 9.52552C23.9183 9.26857 24.4025 9.60366 24.3996 10.4165ZM13.9103 21.5673C13.9769 20.8435 14.0255 20.1487 14.1116 19.4575C14.1507 19.1433 14.0841 18.806 14.3873 18.5389C16.1491 16.9741 17.8941 15.3904 19.6442 13.8118C20.1924 13.3177 20.7391 12.8217 21.2843 12.3237C21.3654 12.2513 21.5167 12.1724 21.4197 12.0341C21.3386 11.9162 21.1968 11.9618 21.0839 12.0023C20.9612 12.0484 20.8434 12.1063 20.7321 12.1753C18.0705 13.8521 15.4086 15.5282 12.7464 17.2035C12.6988 17.224 12.6561 17.2542 12.6208 17.2922C12.5855 17.3301 12.5585 17.375 12.5416 17.424C12.5247 17.473 12.5183 17.525 12.5226 17.5767C12.527 17.6283 12.5421 17.6785 12.567 17.724C12.9658 18.9124 13.3479 20.1059 13.7402 21.2965C13.7699 21.3812 13.7677 21.4949 13.9103 21.5673Z" fill="#5E6773"/>
</svg>
